<svg xmlns="http://www.w3.org/2000/svg" height="24" width="24"><path d="M12.777 23.963c-3.609-.45-6.748-2.594-8.435-5.763-.17-.32-.513-1.052-.76-1.625-.918-2.122-1.15-2.324-2.62-2.29-.827.019-.962-.043-.962-.437 0-.533 1.435-1.687 2.597-2.088.22-.077.437-.17.48-.21.043-.038.12-.317.173-.618.22-1.275.636-2.518 1.17-3.493.655-1.193 1.555-2.204 3.556-3.99C9.709 1.9 10.078 1.41 10.078.653c0-.335.024-.441.124-.54.227-.225.62-.12 1.27.339.444.313.763.682 1.072 1.244l.226.41 1.204.038c.663.022 1.483.084 1.823.14 1.51.247 3.225.856 4.571 1.624.301.172.6.313.662.313.133 0 .42-.37.677-.871.289-.563.59-.636.944-.226.268.31.495.859.632 1.53.082.404.095.672.062 1.281l-.042.77.225.578c.328.844.472 1.563.472 2.366 0 2.207-1.266 3.926-3.278 4.45-.946.248-2.607.12-2.956-.227-.182-.18-.181-.313.002-.92.425-1.411.404-2.746-.058-3.65-.081-.16-.178-.308-.213-.33-.092-.057-.545.223-.823.508l-.236.242.25.182c.493.36.869 1.001.784 1.338-.056.219-.341.332-.676.268-.808-.156-1.385-.01-1.554.393-.159.376-.228 1.153-.155 1.735.29 2.317 2.098 3.964 4.514 4.112.933.057 1.924-.189 2.668-.662.541-.344 1.045-.305 1.412.109.268.302.262.76-.017 1.294-.507.971-1.649 2.305-2.672 3.121-1.439 1.147-3.143 1.912-5.05 2.264-.601.112-2.536.164-3.165.086zm7.528-10.76a3.397 3.397 0 0 0 2.594-2.452c.282-1.089.148-2.13-.448-3.484-.161-.366-.162-.453-.007-1.053.068-.263.123-.631.123-.818 0-.341-.165-1.051-.244-1.051-.024 0-.155.136-.292.304a3.32 3.32 0 0 1-1.195.945c-.347.162-.487.191-1.02.211-.51.02-.683 0-.985-.105-.66-.23-.609-.403.138-.456.62-.044 1.207-.197 1.17-.305-.065-.197-1.667-.93-2.825-1.293-1.302-.41-1.903-.497-3.403-.497-1.144 0-1.427.02-2.035.142-1.376.276-2.646.79-3.76 1.519-.71.464-1.92 1.661-2.38 2.355-.44.663-.979 1.716-.877 1.716.018 0 .177-.135.354-.3.873-.816 2.4-1.714 3.32-1.95.553-.142 1.582-.14 2.067.005.493.147.998.408 1.314.678.26.222.699.98.699 1.204 0 .213.124.183.43-.1.723-.671.972-1.724.647-2.744-.083-.261-.093-.368-.04-.42.121-.12.348.09.593.555.211.397.251.438.49.498 2.065.516 3.244 1.325 3.885 2.666.34.712.45 1.342.405 2.327-.02.441-.09 1.033-.157 1.32-.067.287-.103.54-.08.563.125.125.968.136 1.52.02zm-.644-2.07c0-.961-.094-1.479-.392-2.146-.21-.468-.702-1.167-1.089-1.544-.314-.306-.4-.524-.209-.524.157 0 .854.398 1.36.776.255.19.482.318.522.293.05-.03.059-.196.03-.557-.036-.435-.028-.519.054-.55.162-.061.758.346 1.246.85.252.262.489.476.525.476.044 0 .06-.127.046-.353-.026-.438.093-.477.303-.099.487.877.51 2.33.052 3.357-.25.563-.327.468-.33-.407 0-.59-.029-.837-.131-1.155-.142-.438-.45-.914-.593-.914-.093 0-.097.019-.21.896-.12.943-.75 2.422-1.047 2.465-.135.019-.137.011-.137-.864zM11.18 2.467c.419-.096.754-.204.754-.243 0-.188-.75-1.067-.91-1.067-.043 0-.08.062-.08.138 0 .174-.246.7-.491 1.053-.206.297-.23.37-.108.324.045-.017.42-.11.835-.205z" fill="#c3e4e3"/><path d="M13.077 23.959c-2.707-.275-5.336-1.565-7.052-3.457-1.019-1.124-1.556-1.994-2.332-3.773-1.016-2.327-1.174-2.476-2.635-2.481-.823-.003-.829-.004-.951-.166-.17-.225-.111-.399.274-.816.588-.639 1.578-1.274 2.386-1.532.18-.058.35-.151.382-.208.03-.057.103-.38.16-.715.224-1.309.687-2.595 1.315-3.65.664-1.114 1.441-1.958 3.455-3.754C9.725 1.94 10.064 1.487 10.122.68c.019-.26.062-.508.096-.55.108-.136.478-.084.87.122.526.277 1.08.836 1.396 1.408.143.26.308.485.365.502.057.016.507.028 1 .026 1.128-.005 1.913.088 2.946.35 1.29.326 2.488.812 3.87 1.568.326.18.363.187.494.102.077-.05.238-.262.357-.471.407-.714.454-.77.664-.79.295-.03.41.063.658.533.436.823.49 1.19.451 3.01-.004.176.064.454.187.767.383.97.478 1.447.474 2.39-.003.68-.031.96-.137 1.344-.626 2.282-2.826 3.587-5.27 3.127-.591-.111-.7-.158-.833-.36-.09-.137-.084-.194.091-.81.438-1.546.421-2.7-.052-3.63-.267-.524-.412-.509-1.07.107-.128.12-.233.249-.233.288 0 .04.113.145.251.236.323.212.739.841.739 1.118 0 .314-.196.475-.518.424-.74-.116-1.003-.113-1.291.013-.329.144-.438.315-.535.838-.424 2.273.99 4.52 3.302 5.245.319.1.647.145 1.245.168 1.066.04 1.55-.062 2.433-.52.92-.477 1.27-.454 1.655.106.195.284.176.57-.07 1.075-.494 1.012-1.814 2.52-2.952 3.37a11.299 11.299 0 0 1-4.939 2.08c-.775.12-1.998.163-2.69.093zm2.751-1.07c1.447-.254 3.341-1.067 4.208-1.808l.213-.182-.402.176c-.534.235-1.508.528-2.195.66-.846.163-2.513.146-3.37-.034-2.913-.613-5.23-2.333-6.553-4.862-1.385-2.648-1.451-5.633-.184-8.315.283-.598.268-.6-.455-.085-.729.52-1.592 1.25-1.855 1.567-.74.896-1.214 2.111-1.216 3.118 0 .168-.034.246-.128.296-.2.106-.387-.06-.584-.52-.118-.275-.206-.402-.28-.402-.14 0-1.03.45-1.257.637l-.178.147.27.044c.494.082 1.038.339 1.346.636.393.38.725.952 1.33 2.29.278.616.665 1.387.858 1.713 1.666 2.804 4.223 4.543 7.34 4.99.745.106 2.294.073 3.092-.067zm4.665-9.688c1.222-.315 2.182-1.312 2.48-2.577.074-.311.094-.621.075-1.16-.026-.757-.074-.942-.629-2.407-.093-.246-.091-.287.035-.736.163-.583.173-1.277.024-1.722-.058-.173-.128-.316-.155-.316-.028 0-.164.147-.303.326-.678.87-1.746 1.325-2.724 1.16-.558-.096-.885-.236-.86-.37.018-.086.12-.11.577-.141.546-.037.964-.123 1.14-.234.136-.088.015-.19-.597-.508-1.105-.573-2.67-1.1-3.882-1.306-2.588-.441-5.414.144-7.578 1.57-.773.509-1.887 1.614-2.4 2.378-.39.584-.96 1.683-.924 1.785.01.031.256-.152.545-.406C6.763 7.267 8.3 6.552 9.58 6.552c1.463 0 2.622.716 2.947 1.822.052.177.117.335.146.352.121.075.685-.539.91-.99.205-.412.233-.526.256-1.03.017-.402-.004-.664-.075-.906-.122-.414-.125-.536-.017-.536.123 0 .28.195.499.62l.195.38.616.167c1.029.28 1.516.493 2.171.954a4.34 4.34 0 0 1 1.669 2.446c.162.662.146 1.735-.038 2.625-.13.625-.138.732-.06.78.146.092 1.295.068 1.694-.035zM11.198 2.497c.438-.106.797-.219.797-.25 0-.193-.816-1.152-.98-1.152-.028 0-.097.162-.152.36a3.3 3.3 0 0 1-.381.775c-.154.228-.28.424-.28.437 0 .053.248.01.996-.17z" fill="#b4d0d4"/><path d="M12.925 23.892A10.982 10.982 0 0 1 5 19.127c-.5-.74-.774-1.264-1.248-2.379-.549-1.294-.79-1.74-1.123-2.083-.392-.402-.63-.47-1.603-.46-.607.008-.758-.009-.85-.092-.241-.216-.104-.518.482-1.061.23-.213.611-.512.848-.663.402-.258 1.338-.684 1.508-.687.117-.001.248-.248.292-.553a11.23 11.23 0 0 1 .993-3.28c.723-1.482 1.427-2.301 3.78-4.399 1.701-1.517 2.07-2.013 2.09-2.814.008-.351.033-.45.13-.521.397-.288 1.656.624 2.148 1.556.128.243.267.463.308.49.042.026.562.052 1.157.057 1.126.01 1.977.109 2.843.328 1.195.303 2.665.884 3.564 1.408.807.471.894.44 1.415-.504.126-.229.284-.445.352-.48.615-.327 1.364 1.638 1.17 3.07-.065.48-.06.528.092.943.48 1.305.611 1.987.562 2.92-.043.807-.153 1.226-.517 1.961a3.829 3.829 0 0 1-1.829 1.803c-.795.38-1.361.491-2.266.449-1.132-.053-1.679-.267-1.594-.624.017-.069.12-.456.23-.86.175-.646.2-.838.206-1.564.008-.891-.097-1.387-.41-1.931-.171-.295-.34-.336-.618-.148-.295.2-.726.622-.726.71 0 .041.12.157.266.257.455.311.835.972.725 1.26-.08.207-.29.25-.776.158-.797-.149-1.278.051-1.479.615-.181.51-.174 1.7.015 2.359.37 1.292 1.275 2.375 2.454 2.938.89.426 1.215.495 2.288.491.833-.003.977-.02 1.422-.166a5.48 5.48 0 0 0 .911-.412c.488-.291.7-.345.99-.25.5.163.709.65.518 1.205-.202.588-.998 1.659-1.89 2.541-.984.974-1.7 1.495-2.817 2.05-1.935.962-3.997 1.343-6.087 1.127zm3.12-.97c1.628-.345 3.447-1.2 4.422-2.08l.276-.25-.595.27c-1.41.638-2.657.916-4.104.914-1.111-.001-1.861-.12-2.894-.455a9.307 9.307 0 0 1-6.23-6.872c-.435-1.973-.157-4.21.747-6.005.138-.274.235-.515.216-.534-.083-.082-1.165.666-2.023 1.4-1.123.96-1.764 2.16-1.89 3.54-.04.423-.058.478-.176.494-.147.021-.315-.179-.455-.54-.113-.292-.18-.367-.326-.367-.29 0-1.467.686-1.467.855 0 .026.164.08.365.12.544.106 1.072.393 1.399.761.272.306.635.988 1.569 2.945 1.39 2.915 3.761 4.925 6.693 5.674 1.013.259 1.478.307 2.741.282.834-.017 1.268-.055 1.731-.153zm4.392-9.659a3.525 3.525 0 0 0 2.593-2.698c.201-.94.087-1.845-.385-3.051l-.284-.724.115-.35c.17-.523.192-1.426.043-1.85-.065-.186-.157-.343-.205-.35-.048-.008-.197.139-.332.326a3.181 3.181 0 0 1-1.316 1.009c-.491.186-1.19.224-1.659.09-.625-.18-.678-.34-.112-.34.398 0 1.135-.154 1.298-.272.155-.112.062-.214-.452-.494-2.009-1.095-4.596-1.686-6.604-1.509-2.545.225-4.609 1.1-6.231 2.64A8.313 8.313 0 0 0 5.1 8.102c-.564 1.102-.546 1.183.127.576 1.018-.919 2.35-1.707 3.284-1.944.577-.146 1.512-.16 2.018-.029.463.12 1.04.412 1.335.676.269.241.594.809.658 1.149.059.315.205.3.591-.058.678-.628.957-1.68.703-2.65-.062-.238-.092-.453-.065-.479.065-.064.261.187.476.61.16.313.206.356.441.415 2.02.506 3.201 1.292 3.822 2.545.375.755.458 1.148.454 2.145-.003.652-.036.998-.138 1.438-.166.717-.165.73.005.798.226.09 1.225.071 1.626-.03zM11.252 2.54c.39-.09.73-.196.753-.235.025-.039-.017-.181-.091-.317-.173-.314-.812-.975-.911-.942-.042.014-.127.191-.19.394s-.226.54-.363.75c-.136.21-.248.425-.248.479 0 .113.02.11 1.05-.129z" fill="#69c5c4"/><path d="M12.925 23.892C9.73 23.56 6.82 21.81 5 19.125c-.5-.736-.773-1.257-1.249-2.377-.549-1.294-.79-1.74-1.123-2.083-.392-.402-.63-.47-1.603-.46-.607.008-.758-.009-.85-.092-.24-.214-.103-.518.467-1.047.221-.205.53-.46.687-.568.367-.25 1.16-.64 1.506-.742.311-.09.414-.223.47-.607.332-2.26 1.245-4.202 2.687-5.713.31-.324.973-.956 1.474-1.404A52.142 52.142 0 0 0 9.092 2.51c.867-.86 1.06-1.19 1.075-1.853.009-.351.034-.45.13-.521.398-.288 1.657.624 2.15 1.558.129.244.293.475.365.513.085.045.303.056.63.03.641-.05 1.995.054 2.788.214 1.26.255 3.002.903 4.074 1.518.69.396.838.403 1.094.055.106-.144.272-.418.371-.611.099-.193.238-.381.31-.419.207-.11.44.028.658.389.423.7.628 1.754.517 2.654-.065.522-.062.548.124 1.062.456 1.266.505 1.5.512 2.488.008 1.084-.066 1.425-.493 2.29-.747 1.507-2.291 2.35-4.134 2.26-1.102-.055-1.644-.272-1.56-.624.017-.069.117-.456.224-.86.358-1.364.314-2.452-.135-3.342-.232-.458-.364-.516-.68-.301-.296.2-.727.622-.727.71 0 .041.12.157.266.257.455.311.835.972.725 1.26-.08.207-.29.25-.776.158-.67-.125-1.215.034-1.411.412-.147.281-.248 1.081-.207 1.63.126 1.683 1.114 3.15 2.608 3.874.86.416 1.205.49 2.288.487.835-.003.977-.02 1.422-.166a5.48 5.48 0 0 0 .911-.412c.488-.291.7-.345.99-.25.5.163.709.65.518 1.205-.278.809-1.744 2.572-2.853 3.43a11.121 11.121 0 0 1-7.94 2.288zm3.198-.965a11.057 11.057 0 0 0 3.26-1.292c.478-.29 1.476-1.043 1.436-1.082-.014-.014-.315.112-.669.279a9.513 9.513 0 0 1-2.56.81c-.626.107-.911.122-1.824.095-1.152-.035-1.597-.107-2.597-.424-3.187-1.01-5.602-3.73-6.288-7.082-.156-.766-.154-2.716.005-3.45a11.22 11.22 0 0 1 .757-2.261c.15-.317.271-.586.271-.598 0-.166-.922.43-1.863 1.204-.75.618-1.263 1.234-1.597 1.92-.27.553-.496 1.387-.497 1.83 0 .364-.046.48-.19.48-.123 0-.39-.399-.462-.69-.077-.31-.23-.325-.752-.08-.483.228-1.07.618-1.07.712 0 .029.105.07.233.09.127.02.399.095.603.164.9.31 1.243.746 2.131 2.716.531 1.179.828 1.73 1.307 2.422 1.546 2.236 3.715 3.697 6.27 4.223.893.183.872.182 2.255.16.999-.015 1.39-.046 1.841-.146zm1.637-2.212a9.71 9.71 0 0 0 1.039-.283c.54-.194 1.26-.51 1.227-.542-.014-.012-.303.032-.643.099-.883.173-2.4.131-3.246-.09-1.628-.424-2.717-1.08-3.09-1.862-.158-.332-.192-.96-.068-1.271.039-.098.056-.191.039-.209-.081-.08-.641.296-.852.573-.314.412-.439.403-.485-.034-.027-.245-.125-.5-.362-.937-.628-1.157-.893-2.214-.89-3.538.004-1.318.343-2.611.95-3.628.266-.445.291-.58.156-.84-.11-.21-.544-.606-.75-.684-.325-.122-.955-.186-1.196-.122-.195.052-.286.136-.516.477-1.516 2.242-1.865 5.073-.931 7.553.289.767.486 1.15.946 1.83 1.362 2.02 3.558 3.33 6.122 3.652.495.062 1.962-.021 2.55-.144zm2.677-7.452c.985-.25 1.83-.912 2.257-1.77.589-1.185.576-2.387-.043-3.96-.153-.388-.265-.76-.25-.828.015-.068.074-.288.13-.49.139-.497.133-1.2-.014-1.625-.064-.186-.155-.343-.203-.35-.048-.008-.197.139-.332.326-.66.916-1.875 1.372-2.934 1.103-.659-.168-.737-.344-.153-.344.398 0 1.135-.154 1.298-.272.155-.112.062-.214-.452-.494-.942-.514-2.468-1.067-3.618-1.312-2.737-.584-5.712-.035-8.03 1.48-.753.491-1.945 1.663-2.424 2.383-.548.823-1.087 1.956-.93 1.955.029 0 .261-.185.516-.41.768-.678 1.408-1.114 2.193-1.495.41-.198.925-.402 1.146-.453.516-.119 1.481-.12 1.935-.003.463.12 1.04.412 1.335.676.268.24.594.808.657 1.144.023.124.08.24.127.258.161.062.753-.557.993-1.039.199-.398.23-.522.256-1.033.023-.438.006-.656-.07-.887-.245-.743.007-.647.416.159.143.281.194.327.426.385 2.02.506 3.2 1.292 3.821 2.545.375.755.458 1.148.454 2.145-.003.652-.036.998-.138 1.438-.166.717-.165.73.005.798.226.09 1.225.071 1.626-.03zM10.635 2.688c.119-.035.466-.12.77-.188.306-.068.575-.155.599-.193.024-.039-.013-.178-.08-.311-.155-.299-.818-.985-.921-.95-.042.013-.127.19-.19.393s-.226.54-.363.75c-.36.552-.324.647.185.499z" fill="#6398a6"/><path d="M12.6 23.81c-2.706-.382-5.121-1.704-6.84-3.74-.838-.994-1.383-1.932-2.05-3.526-.594-1.418-.946-1.96-1.444-2.224-.226-.12-.358-.137-1.108-.145-.57-.006-.882-.034-.943-.084-.182-.15-.107-.4.228-.764.587-.638 1.447-1.195 2.323-1.505.212-.075.414-.171.45-.214.036-.042.107-.335.158-.651.189-1.157.526-2.21 1.017-3.182.69-1.364 1.422-2.217 3.496-4.076 1.95-1.75 2.315-2.226 2.315-3.03 0-.621.145-.686.809-.36.507.249 1.136.872 1.38 1.37.301.61.241.581 1.254.581.49 0 1.16.03 1.49.065 1.683.181 3.769.872 5.272 1.746.26.15.534.274.612.274.185 0 .401-.242.71-.795.283-.507.378-.59.612-.532.206.052.475.501.702 1.173.153.454.166.574.175 1.594.01 1.086.013 1.112.21 1.624.33.86.452 1.473.448 2.27-.009 2.21-1.305 3.876-3.389 4.356-.727.168-2.346.025-2.633-.231-.14-.127-.132-.216.102-1.091.387-1.447.308-2.732-.224-3.625-.149-.25-.3-.301-.533-.182-.25.128-.876.705-.876.806 0 .046.126.169.28.274.31.211.686.723.742 1.01.043.218-.073.405-.25.403-.068 0-.401-.018-.741-.038-.534-.032-.648-.02-.835.08-.618.33-.778 1.877-.333 3.203.402 1.196 1.43 2.314 2.589 2.815.489.212 1.191.373 1.794.413.951.064 1.87-.158 2.754-.663.383-.22.473-.247.717-.22A.793.793 0 0 1 23.732 18c-.233.86-1.672 2.629-2.927 3.6a11.336 11.336 0 0 1-4.702 2.12c-.87.171-2.615.217-3.504.09zm3.43-.823a10.38 10.38 0 0 0 3.704-1.533c.699-.466 1.28-.95 1.217-1.014-.022-.023-.328.102-.68.277-1.568.78-3.34 1.129-4.98.979-3.89-.356-7.019-2.902-8.14-6.623-.646-2.14-.43-4.635.574-6.614.138-.272.25-.523.25-.557 0-.216-.528.078-1.545.86-1.703 1.31-2.397 2.485-2.55 4.318-.01.115-.054.19-.12.203-.076.014-.165-.105-.329-.444-.197-.406-.245-.463-.39-.463-.358 0-1.661.762-1.603.937.013.039.203.106.421.15.637.125 1.133.4 1.453.803.315.396.734 1.181 1.2 2.248 1.621 3.713 4.4 5.964 8.097 6.561.793.128 2.566.082 3.421-.088zm1.2-2.124a9.045 9.045 0 0 0 2.207-.612c.525-.226 1.053-.515 1.013-.554-.013-.014-.3.047-.638.134-.828.215-2.25.27-3.116.12-1.72-.296-3.224-1.113-3.589-1.948a1.849 1.849 0 0 1-.065-1.233c.09-.27.066-.316-.136-.265-.237.059-.552.298-.778.592-.116.151-.242.275-.28.275-.039 0-.078-.127-.088-.286-.014-.204-.099-.425-.295-.767-1.286-2.233-1.319-4.863-.09-7.176.17-.322.31-.646.31-.718 0-.205-.337-.685-.599-.854-.309-.2-.695-.297-1.216-.307-.415-.007-.428-.003-.618.215-.107.123-.33.451-.497.73-1.73 2.89-1.56 6.514.436 9.263.45.62 1.46 1.592 2.09 2.014 1.774 1.185 3.905 1.678 5.95 1.377zm3.078-7.535c.71-.135 1.22-.408 1.77-.95 1.201-1.184 1.417-2.873.62-4.844-.14-.345-.254-.675-.254-.734 0-.058.055-.322.123-.586.185-.714.14-1.442-.117-1.918-.108-.2-.199-.163-.44.178a3.04 3.04 0 0 1-1.213.99c-.4.187-.465.199-1.105.198-.54 0-.73-.024-.927-.117l-.247-.117.494-.053c.562-.06 1.055-.186 1.236-.317.121-.088.121-.09.004-.22-.358-.392-2.844-1.373-4.208-1.66-.792-.166-2.538-.23-3.411-.125-3.537.427-6.443 2.452-7.777 5.42-.345.769-.254.8.472.167 1.045-.912 2.265-1.628 3.204-1.88.551-.148 1.575-.148 2.07 0 1.008.3 1.579.812 1.833 1.642.163.53.253.538.727.065.696-.692.967-1.671.718-2.59-.177-.655-.05-.627.299.067l.196.39.64.171c2.042.544 3.237 1.54 3.73 3.112.126.403.143.58.141 1.44-.002.812-.027 1.08-.145 1.55-.156.626-.135.721.168.767.376.057.956.038 1.4-.046zM11.061 2.625c1.05-.253.996-.231.996-.393 0-.275-.894-1.301-1.08-1.24-.034.012-.132.227-.219.48a3.56 3.56 0 0 1-.387.776c-.226.312-.273.44-.19.523.056.055.007.064.88-.146z" fill="#507089"/><path d="M12.423 23.75c-2.478-.4-4.652-1.552-6.323-3.35-.953-1.026-1.574-2.035-2.298-3.733-.513-1.203-.825-1.771-1.15-2.096-.376-.374-.635-.448-1.583-.448-1.113 0-1.194-.147-.488-.882.494-.514 1.312-1.044 2.047-1.327.325-.125.616-.275.648-.334.032-.058.087-.297.123-.529.249-1.604.814-3.09 1.646-4.33.496-.737 1.517-1.8 2.993-3.113C9.213 2.563 9.575 2.2 9.879 1.76c.272-.393.33-.56.376-1.093.038-.448.044-.46.215-.48.495-.056 1.494.762 1.917 1.568.128.244.28.468.337.498.058.03.704.07 1.435.088 1.102.027 1.456.06 2.071.19 1.347.283 2.869.852 4.067 1.518.619.344.68.366.846.298.189-.078.384-.326.647-.823.22-.415.272-.466.477-.466.147 0 .214.053.366.291.102.16.261.512.353.782.155.455.167.567.172 1.563l.005 1.073.288.828c.366 1.048.47 1.802.365 2.645-.23 1.852-1.3 3.145-3.042 3.677-.862.263-2.551.165-2.887-.168-.133-.132-.135-.148-.048-.439.26-.867.347-1.328.38-2.011.044-.867-.059-1.45-.36-2.047-.287-.57-.539-.565-1.212.028-.413.364-.417.484-.03.768.326.24.695.794.695 1.046 0 .268-.132.33-.537.249-.785-.157-1.373-.02-1.62.379-.238.386-.33 1.508-.187 2.283.215 1.157.96 2.306 1.952 3.009.691.49 1.438.76 2.448.886.927.115 2.054-.127 2.901-.623.454-.265.786-.312 1.097-.152.183.094.376.423.376.64 0 .425-.696 1.547-1.565 2.52-1.488 1.668-3.61 2.87-5.954 3.375-.796.17-2.978.223-3.8.09zm2.712-.588a10.517 10.517 0 0 0 5.474-2.298c.358-.293.519-.52.366-.518-.025 0-.35.152-.723.338-.783.39-1.734.71-2.57.864-.833.153-2.42.154-3.245 0-4.266-.79-7.331-4.24-7.61-8.564-.095-1.479.296-3.283 1.02-4.706.313-.614.163-.658-.575-.167-2.224 1.476-3.148 2.732-3.398 4.618-.04.294-.1.528-.133.52-.067-.017-.213-.266-.387-.659-.08-.182-.15-.25-.266-.263-.197-.023-1.172.458-1.51.745-.214.181-.235.22-.162.308.046.054.164.099.263.099.243 0 .873.216 1.167.4.447.28.864.94 1.512 2.39.506 1.134.794 1.671 1.3 2.421 2.132 3.166 5.751 4.874 9.477 4.472zm2.362-2.303c.29-.048.79-.169 1.113-.268.654-.2 1.865-.78 1.907-.914.02-.065-.01-.075-.12-.044-1.123.322-1.976.437-2.824.38-1.955-.131-3.924-1.004-4.414-1.956-.171-.333-.208-.853-.089-1.236.059-.185.074-.327.039-.361-.105-.105-.758.277-.982.575-.115.151-.233.285-.263.296-.03.011-.055-.092-.055-.23 0-.189-.077-.386-.308-.79a8.296 8.296 0 0 1-.821-2.095c-.161-.643-.19-2.225-.053-2.913a8.456 8.456 0 0 1 .801-2.197l.35-.664-.188-.343c-.325-.593-.892-.873-1.77-.873-.347 0-.392.016-.57.205-.458.488-1.129 1.815-1.397 2.765-.317 1.123-.404 2.602-.216 3.689.51 2.942 2.578 5.472 5.335 6.525a8.548 8.548 0 0 0 4.525.45zm2.937-7.512c.588-.124 1.186-.459 1.664-.931.755-.747 1.088-1.594 1.087-2.763 0-.729-.143-1.388-.468-2.167-.244-.585-.247-.674-.06-1.486.12-.52.095-.964-.081-1.48-.128-.373-.289-.514-.389-.34-.164.287-.616.768-.915.976-.5.347-.939.491-1.518.5-.47.006-1.082-.11-1.082-.207 0-.025.23-.06.51-.08.583-.039 1.072-.188 1.161-.353.085-.158-.16-.332-1.116-.789-1.918-.917-3.865-1.351-5.717-1.273-3.844.162-7.035 2.134-8.59 5.31-.295.602-.352.862-.188.862.052 0 .346-.22.654-.49C6.344 7.798 7.511 7.1 8.41 6.83c.514-.155 1.486-.189 1.997-.07 1.12.262 1.809.87 2.05 1.809.105.412.245.405.698-.036.438-.426.721-.972.824-1.592.06-.36.056-.513-.027-.913-.054-.264-.087-.491-.073-.505.014-.014.124.17.245.408.203.399.24.438.483.503 1.632.436 2.282.748 3.028 1.453 1.168 1.105 1.533 2.798 1.041 4.827-.103.428-.107.502-.03.58.176.178 1.074.205 1.79.054zM12.041 2.415c.21-.077-.08-.623-.605-1.144-.414-.41-.52-.39-.697.13a4.04 4.04 0 0 1-.32.696c-.406.65-.383.59-.264.68.092.067.243.047.959-.127.467-.113.885-.219.927-.235z" fill="#2e6673"/><path d="M12.86 23.77a10.882 10.882 0 0 1-8.211-5.406c-.171-.297-.538-1.07-.816-1.717-.72-1.678-1.072-2.202-1.638-2.44-.105-.045-.573-.093-1.082-.112-.88-.033-.897-.036-.917-.176-.063-.44 1.23-1.497 2.37-1.935.79-.304.775-.286.898-1.08.23-1.484.793-2.94 1.614-4.169.472-.707 1.57-1.84 3.104-3.204 1.69-1.502 2.08-2.03 2.08-2.811.002-.51.084-.605.423-.485.64.228 1.315.855 1.7 1.582.28.527.373.57 1.167.523 1.006-.06 2.323.107 3.574.451 1.109.305 2.794 1.02 3.455 1.465.482.325.773.162 1.22-.681.132-.251.29-.472.352-.492.183-.06.38.122.582.535.358.733.459 1.428.397 2.75-.015.329.015.482.17.87.313.78.456 1.426.487 2.202.039.937-.082 1.543-.46 2.322-.236.486-.368.665-.785 1.076-.536.526-.954.78-1.677 1.019-.376.125-.553.143-1.36.143-1.03 0-1.598-.113-1.667-.33-.02-.064.047-.412.15-.776.28-.988.358-1.83.238-2.556-.146-.886-.51-1.58-.828-1.58-.152 0-.82.473-1.015.718-.159.2-.157.3.01.433.442.354.622.552.765.842.135.274.15.35.089.462-.068.126-.098.131-.453.083-.819-.11-1.164-.058-1.493.229-.318.277-.43.7-.428 1.617.003.831.134 1.414.466 2.072.536 1.06 1.302 1.799 2.362 2.28.62.28 1.142.402 1.897.441 1.014.053 1.894-.152 2.692-.629.202-.12.442-.234.532-.252.26-.051.604.092.737.309.246.4.132.8-.49 1.722-2.222 3.29-6.248 5.137-10.21 4.686zm3.4-.747c1.682-.399 3.146-1.115 4.406-2.153.4-.33.491-.472.354-.556-.035-.022-.361.112-.726.296a9.594 9.594 0 0 1-2.371.85c-.555.123-.809.142-1.879.142-1.346-.001-1.765-.06-2.844-.407-3.161-1.015-5.516-3.682-6.192-7.013-.157-.771-.157-2.596 0-3.366.146-.723.485-1.717.79-2.319.253-.497.286-.734.108-.768-.261-.05-2.31 1.52-2.866 2.194-.686.834-1.129 1.864-1.191 2.775-.019.263-.058.493-.088.512-.03.018-.151-.174-.27-.427-.126-.272-.262-.476-.33-.497-.177-.056-.764.187-1.279.529-.713.473-.73.61-.089.724 1.196.21 1.616.69 2.66 3.036 1.424 3.203 3.675 5.322 6.614 6.226 1.16.357 1.715.426 3.215.4 1.156-.02 1.414-.043 1.979-.178zm1.268-2.103c.306-.05.849-.188 1.206-.306.807-.265 1.876-.808 1.907-.969.026-.133-.084-.123-.837.081-1.358.369-2.818.305-4.31-.188-1.918-.634-2.725-1.578-2.345-2.744.134-.411.07-.49-.302-.37-.17.055-.393.212-.62.435l-.356.35v-.187c0-.111-.123-.403-.302-.716a7.622 7.622 0 0 1-.795-1.964c-.139-.517-.158-.715-.162-1.66-.004-.918.015-1.153.134-1.625a7.988 7.988 0 0 1 .761-1.973c.166-.31.302-.6.302-.644 0-.045-.058-.192-.13-.326-.325-.613-.824-.894-1.663-.936-.631-.031-.71.014-1.141.657-.617.92-1.098 2.14-1.303 3.306-.12.683-.116 2.044.008 2.772.572 3.347 3.073 6.034 6.393 6.87 1.211.306 2.29.347 3.555.137zm1.948-1.795c.63-.161 1.253-.39 1.28-.47.014-.043-.248-.065-.8-.066-.548 0-.984-.036-1.315-.108-2.238-.486-3.882-2.127-4.33-4.324-.131-.638-.097-1.869.067-2.408.198-.655.82-1.148 1.45-1.152.153 0 .319-.027.369-.058.077-.048.072-.076-.031-.19-.163-.177-.557-.398-.879-.491-.304-.089-.334-.16-.093-.218.1-.024.344-.226.589-.487.23-.246.557-.548.726-.671.17-.123.308-.264.308-.313 0-.213-1.373-.875-2.03-.98-.283-.044-.343.016-.434.445-.22 1.034-1.098 1.949-2.082 2.167-.168.037-.355.112-.415.166-.06.054-.18.318-.265.586-.519 1.629-.422 3.388.265 4.84.33.695.345.704.818.482.222-.104.548-.198.768-.221.808-.086 1.087.268.618.782-.252.277-.454.678-.456.905 0 .085.053.242.12.35.333.543 1.886 1.304 3.032 1.488.255.04.505.084.556.096.254.062 1.739-.042 2.164-.15zm1.014-5.767c1.041-.264 1.856-.912 2.317-1.84.605-1.222.575-2.555-.093-4.137l-.228-.541.133-.505c.076-.287.134-.692.134-.935 0-.455-.184-1.172-.333-1.294-.11-.092-.253-.033-.33.135-.108.232-.623.757-.945.962-.608.387-1.417.525-2.09.356l-.29-.073.542-.078c.711-.102 1.113-.274 1.085-.463-.057-.399-2.621-1.484-4.313-1.826a11.318 11.318 0 0 0-5.62.34c-2.486.822-4.503 2.554-5.577 4.79-.468.973-.325 1.199.358.565.964-.894 2.302-1.698 3.262-1.96.631-.173 1.508-.187 2.037-.032 1.056.31 1.656.88 1.887 1.792.036.14.11.272.166.293.268.102 1.002-.69 1.262-1.36.16-.414.226-1.222.128-1.575-.1-.358-.037-.338.154.048.188.38.188.38 1.074.62.323.086.878.299 1.232.472.55.267.725.392 1.182.842.82.809 1.143 1.544 1.212 2.766.038.66-.017 1.192-.208 2.012-.118.51-.082.631.205.694.39.084 1.185.052 1.657-.068zM11.123 2.686c1.017-.245.978-.232 1.021-.342.06-.153-.26-.665-.666-1.067-.456-.452-.59-.463-.709-.06-.128.433-.266.726-.487 1.034-.261.365-.274.622-.03.622.05 0 .443-.084.871-.187z" fill="#15385d"/></svg>